Coordinates
version=1
nRows=13
nColumns=34
inDegrees=yes

Units are S.I. units (second, meters, Newtons, ...)
If the header above contains a line with 'inDegrees', this indicates whether rotational values are in degrees (yes) or radians (no).

endheader
time	pelvis_tilt	pelvis_list	pelvis_rotation	pelvis_tx	pelvis_ty	pelvis_tz	hip_flexion_r	hip_adduction_r	hip_rotation_r	knee_angle_r	ankle_angle_r	subtalar_angle_r	mtp_angle_r	hip_flexion_l	hip_adduction_l	hip_rotation_l	knee_angle_l	ankle_angle_l	subtalar_angle_l	mtp_angle_l	lumbar_extension	lumbar_bending	lumbar_rotation	arm_flex_r	arm_add_r	arm_rot_r	elbow_flex_r	pro_sup_r	arm_flex_l	arm_add_l	arm_rot_l	elbow_flex_l	pro_sup_l
      3.75000000	    -10.50180899	      6.26430436	     -1.35744947	      0.83402273	      0.79435964	     -0.07010280	     52.68626397	    -12.17152418	      3.16509660	     69.90161648	     32.54689666	     -4.71946977	      0.00000000	     48.78331266	     -8.09571249	     -3.73791746	     67.06201923	     32.50628025	      5.45863855	      0.00000000	    -40.39378973	      5.62916577	     -4.06541007	     24.65338415	    -10.81173491	      4.82043328	     72.13542299	     92.80896860	     28.24604687	     -7.03091691	      8.31379739	     58.39080793	     91.37346617
      3.76666670	    -10.51029486	      6.45608210	     -1.72463524	      0.84038174	      0.80838594	     -0.07027383	     50.86454604	    -11.97475142	      2.90087111	     66.46203286	     31.24101873	     -4.64738542	      0.00000000	     47.22019214	     -7.66395517	     -3.77285523	     64.20200171	     30.45780179	      4.60268956	      0.00000000	    -38.89414728	      5.06893844	     -4.41543621	     24.51705276	    -10.53284174	      6.78035060	     75.13151182	     93.45485040	     26.92257380	     -7.61416187	      8.21457168	     57.16391524	     91.49952422
      3.78333330	    -10.13674636	      6.51900027	     -2.23001241	      0.84453171	      0.82475963	     -0.07130201	     48.08881616	    -11.83492119	      2.51259552	     62.41222127	     29.33035904	     -4.12570624	      0.00000000	     44.55957996	     -7.24324887	     -3.89940777	     60.59391185	     28.64842639	      4.39530518	      0.00000000	    -37.72343984	      4.55518553	     -4.31494938	     23.95526966	    -10.65675391	      8.79305422	     77.15634244	     94.11024422	     25.47289619	     -7.77026541	      7.88473125	     55.89382757	     91.53364147
      3.80000000	     -9.62341042	      6.54344703	     -2.77905431	      0.84911370	      0.84124793	     -0.06590964	     44.81303918	    -11.48220159	      2.02112532	     58.04004984	     27.39509771	     -3.93060201	      0.00000000	     41.15593083	     -6.89516608	     -4.01545466	     56.23187454	     26.43412088	      3.63315546	      0.00000000	    -36.50856339	      3.95089693	     -4.25515534	     23.15259369	    -10.33917034	     10.66708774	     77.98410688	     94.69902645	     24.00297212	     -7.94397459	      7.45285058	     53.83086757	     91.47807057
      3.81666670	     -9.21011397	      6.52237872	     -3.23648102	      0.85113307	      0.85685704	     -0.06308100	     41.45141187	    -11.04991084	      1.64420696	     53.39565241	     25.37325942	     -3.87467750	      0.00000000	     37.67900829	     -6.49275829	     -4.08527489	     51.59483657	     24.03832792	      2.85682174	      0.00000000	    -35.00005254	      3.41272516	     -4.16705348	     22.10792946	    -10.12602006	     12.35374141	     78.04514817	     95.24481386	     22.55072746	     -8.08830771	      6.92745137	     51.49267345	     91.34657856
      3.83333330	     -8.81967350	      6.46237899	     -3.64432765	      0.85534836	      0.86916036	     -0.05892926	     38.23551609	    -10.48394132	      1.29762033	     48.97179586	     23.40668058	     -3.67270650	      0.00000000	     34.16273796	     -6.10388627	     -3.88475174	     46.73522922	     21.59177193	      2.10399095	      0.00000000	    -33.16353325	      2.89584135	     -4.13639653	     20.55239562	     -9.75335027	     13.76207482	     77.58796266	     95.72729945	     20.90502613	     -8.36255863	      6.38644315	     49.13075709	     91.15383767
      3.85000000	     -8.69844206	      6.43271154	     -3.94074449	      0.86262785	      0.87520274	     -0.05710190	     35.63517155	    -10.05122955	      1.09654674	     45.25961482	     21.98358260	     -3.66922552	      0.00000000	     31.07279233	     -5.75648967	     -3.81818111	     42.16756525	     19.81422024	      1.65231084	      0.00000000	    -30.74055866	      2.47710706	     -4.05685642	     18.57908454	     -9.56638832	     15.01626107	     76.90316202	     96.17388255	     18.80353224	     -8.60766834	      5.85798092	     47.03916813	     90.90650110
      3.86666670	     -8.68888344	      6.38004457	     -3.97923487	      0.86688095	      0.88755545	     -0.05567061	     32.97678589	     -9.71775072	      0.74795627	     41.27795115	     20.30143931	     -3.49736610	      0.00000000	     28.14174650	     -5.24932069	     -3.41246082	     37.42703063	     17.63739248	      1.17788330	      0.00000000	    -28.19071644	      2.27957071	     -3.86781714	     16.71728805	     -9.54298082	     16.09495694	     75.82883229	     96.52055172	     16.79512167	     -8.76411174	      5.62468678	     45.20894183	     90.67788953
      3.88333330	     -8.77701961	      6.34158393	     -3.99676206	      0.87358961	      0.89649585	     -0.05431467	     30.45392699	     -9.33919641	      0.53199656	     37.42811598	     18.94626450	     -3.58541677	      0.00000000	     25.44744703	     -4.82043292	     -3.06516499	     33.04620131	     15.63627092	      0.54532629	      0.00000000	    -25.38830358	      2.05206076	     -3.61325739	     14.82576793	     -9.68357011	     17.10420674	     74.72398719	     96.79595192	     14.62285093	     -8.83843172	      5.49236777	     43.50558126	     90.42867351
      3.90000000	     -8.98842153	      6.30819134	     -4.13711034	      0.87627106	      0.90616702	     -0.05285362	     28.32315881	     -8.94218121	      0.27199566	     33.75413924	     17.41084850	     -3.70372134	      0.00000000	     23.04276089	     -4.42981145	     -2.74749519	     28.71684151	     13.37647547	     -0.02844312	      0.00000000	    -22.61626095	      1.79314816	     -3.14171206	     13.16136479	     -9.90305862	     18.10337844	     73.52144156	     97.00548836	     12.56983433	     -8.97694386	      5.41450462	     42.13547773	     90.15143502
      3.91666670	     -9.41667396	      6.16887854	     -4.17924894	      0.88128932	      0.91064164	     -0.05200061	     26.50818421	     -8.57678153	     -0.10262912	     30.36270720	     16.20129311	     -3.41760946	      0.00000000	     20.97296925	     -4.20724400	     -2.57040272	     24.69050447	     11.81691501	      0.18667357	      0.00000000	    -19.51510525	      1.76572818	     -2.60408379	     11.21777821	    -10.22257690	     18.73061308	     73.09862845	     97.06930404	     10.43107585	     -9.14315210	      5.46431911	     41.66923700	     90.06348443
      3.93333330	     -9.33090794	      6.09927372	     -4.33184265	      0.88845884	      0.91475538	     -0.05014805	     23.95091831	     -8.14827271	     -0.09576707	     26.50834817	     14.65909010	     -4.03295234	      0.00000000	     18.17394060	     -3.86399264	     -1.91855775	     20.28258064	      9.47339866	     -1.06253787	      0.00000000	    -17.07105213	      1.65550100	     -2.06164474	      9.68460773	    -10.59779518	     19.70352230	     71.93602436	     97.13507712	      8.66350112	     -9.40011361	      5.41548716	     40.90275652	     89.78683981
      3.95000000	     -9.89717385	      5.88530718	     -4.26690903	      0.88702170	      0.91695477	     -0.04969977	     22.64412885	     -7.65123168	     -0.31977895	     23.23163510	     13.77281694	     -3.90397638	      0.00000000	     16.66498401	     -3.83165715	     -1.59425809	     16.55650059	      7.93057716	     -1.02487538	      0.00000000	    -14.35926728	      1.85769079	     -1.53692736	      8.24744430	    -11.04165693	     20.31123163	     71.77641881	     97.15400310	      7.03135654	     -9.70381938	      5.42817601	     40.78764945	     89.67612894
